<svg xmlns="http://www.w3.org/2000/svg" xmlns:xlink="http://www.w3.org/1999/xlink" viewBox="0 0 620 600"><defs><style>.cls-1{fill:url(#linear-gradient);}.cls-2{fill:#005c74;}.cls-3{fill:url(#linear-gradient-2);}</style><linearGradient id="linear-gradient" x1="300.56" y1="-92.13" x2="335.66" y2="506.38" gradientUnits="userSpaceOnUse"><stop offset="0.22" stop-color="#01b1a9"/><stop offset="1" stop-color="#005c74"/></linearGradient><linearGradient id="linear-gradient-2" x1="309.42" y1="9.44" x2="310.54" y2="575.09" gradientUnits="userSpaceOnUse"><stop offset="0" stop-color="#01b1a9"/><stop offset="1" stop-color="#005c74"/></linearGradient></defs><title>fav icon 01</title><g id="OBJECTS"><path class="cls-1" d="M499.28,332.2H426.36a14.42,14.42,0,0,0-10,4l-30.52,29.47h0l-31.18-46.1c2.06-.44,4.11-.95,6.12-1.53a91.46,91.46,0,0,0-25.47-179.31h-195l12.13,17.28h0l26.3,37.44H335.31a36.72,36.72,0,1,1,0,73.44H233.55v0H178.83V480.76h54.72V321.66H290l55.89,82.65h0l-79.19,76.47h72.92a14.4,14.4,0,0,0,10-4L377,450.31,395,477a8.65,8.65,0,0,0,7.16,3.81h61.49l-46.7-69.07Z"/><path class="cls-2" d="M223.63,321.66h9.92a0,0,0,0,1,0,0v159.1a0,0,0,0,1,0,0H178.83a0,0,0,0,1,0,0V366.46A44.8,44.8,0,0,1,223.63,321.66Z"/><path class="cls-3" d="M310,43.72A255,255,0,0,1,453.26,87.47a257.09,257.09,0,0,1,92.89,112.79,255.91,255.91,0,0,1-23.62,243,257.09,257.09,0,0,1-112.79,92.89,255.91,255.91,0,0,1-243-23.62A257.09,257.09,0,0,1,73.85,399.74a255.91,255.91,0,0,1,23.62-243A257.09,257.09,0,0,1,210.26,63.85,254.52,254.52,0,0,1,310,43.72m0-36.87C148.1,6.85,16.85,138.1,16.85,300S148.1,593.15,310,593.15,603.15,461.9,603.15,300,471.9,6.85,310,6.85Z"/></g></svg>